<?xml version="1.0" encoding="UTF-8"?>
<svg id="_Слой_1" data-name="Слой 1" xmlns="http://www.w3.org/2000/svg" xmlns:xlink="http://www.w3.org/1999/xlink" viewBox="0 0 1300 900">
  <defs>
    <style>
      .cls-1 {
        fill: url(#_Безымянный_градиент_15);
      }

      .cls-2 {
        fill: #fff;
      }

      .cls-3 {
        fill: #fefffe;
      }

      .cls-4 {
        fill: red;
      }

      .cls-5 {
        fill: #000515;
      }
    </style>
    <linearGradient id="_Безымянный_градиент_15" data-name="Безымянный градиент 15" x1="448.09" y1="415.32" x2="501.83" y2="469.06" gradientUnits="userSpaceOnUse">
      <stop offset="0" stop-color="#e7f9fe"/>
      <stop offset=".52" stop-color="#95cff5"/>
      <stop offset=".58" stop-color="#8ec7ed"/>
      <stop offset=".67" stop-color="#7cb1d9"/>
      <stop offset=".78" stop-color="#608db7"/>
      <stop offset=".91" stop-color="#385c89"/>
      <stop offset="1" stop-color="#1a3666"/>
    </linearGradient>
  </defs>
  <rect class="cls-5" x="-34" y="-27.96" width="1368" height="955.91"/>
  <g>
    <g>
      <g>
        <polygon class="cls-4" points="473.88 434.47 473.88 434.53 473.87 434.53 473.88 434.47"/>
        <polygon class="cls-4" points="476.05 434.53 476.04 434.53 476.04 434.47 476.05 434.53"/>
      </g>
      <g>
        <polygon class="cls-4" points="473.88 434.47 473.88 434.53 473.87 434.53 473.88 434.47"/>
        <polygon class="cls-4" points="476.05 434.53 476.04 434.53 476.04 434.47 476.05 434.53"/>
      </g>
      <path class="cls-5" d="M509,435.92c1.72-5.59-1.36-12.69-4.53-14.93.1-6.66-4.13-12.17-10.52-13.69-1.64-3.22-5.29-5.71-9.28-6.27-3.71-.52-7.11.64-9.72,3.27-2.6-2.63-6.01-3.79-9.72-3.27-3.98.55-7.64,3.04-9.28,6.27-6.39,1.53-10.61,7.04-10.51,13.69-3.17,2.23-6.25,9.33-4.53,14.93-3.18,3.86-4.23,9.42-2.87,15.38,1.2,5.29,4.09,9.68,7.49,11.47-.26,3.96.76,7.31,2.95,9.72,2.04,2.26,4.94,3.51,8.41,3.67,1.3,3.53,4.65,5.79,8.95,5.97.18,0,.36.01.53.01,3.58,0,6.81-1.53,8.58-3.94,1.77,2.42,5,3.94,8.58,3.94.18,0,.36,0,.54-.01,4.29-.18,7.64-2.45,8.94-5.97,3.47-.15,6.37-1.41,8.42-3.67,2.19-2.42,3.2-5.77,2.95-9.72,3.4-1.79,6.28-6.18,7.49-11.47,1.35-5.97.31-11.53-2.87-15.38ZM476.04,406.3c2.17-2.47,5.12-3.59,8.34-3.14,2.99.42,5.75,2.12,7.23,4.38-3.04,1.09-5.82,3.86-6.75,6.2l2,.8c.73-1.82,3.46-4.63,6.32-5.2,5.38,1.16,9.01,5.65,9.12,11.17h-4.93c-.06-.75-.19-1.51-.36-2.28l-2.1.48c.76,3.32.32,6.41-1.24,8.72-1.09,1.62-2.66,2.69-4.31,2.95l.34,2.13c2.24-.36,4.34-1.77,5.76-3.88,1.15-1.71,1.81-3.75,1.94-5.96h5.69c2.56,1.52,5.19,7.77,3.91,12.41h-4.12c.04-.45.06-.92.06-1.41h-2.16c0,2.91-.82,5.07-2.24,5.92-1.57.93-3.61.72-5.2-.54-1.24-.99-2.82-1.75-4.67-2.27l-.59,2.08c1.58.44,2.9,1.08,3.91,1.88.85.67,1.79,1.13,2.77,1.38v6.17c0,1.51-.62,2.88-1.69,3.76-.94.77-2.04,1.08-3.1.86-1.28-.26-2.42-1.25-3.22-2.79l-1.92.99c.56,1.08,1.27,1.97,2.08,2.64v4.4c0,3.66-2.97,6.63-6.63,6.63h-4.25v-10.72h4.86l-3.47-13.97c4.11-1.09,7.15-4.85,7.15-9.31,0-4.94-3.74-9.02-8.55-9.56v-14.9ZM473.88,475.75c-1.23,3.08-4.95,4.35-7.95,4.22-2.77-.12-6.06-1.47-7.13-4.89h0c.64-2.36,2.87-3.62,4.7-3.62v-2.16c-2.51,0-5.52,1.64-6.62,4.7-2.83-.14-5.18-1.16-6.81-2.95-1.71-1.89-2.54-4.54-2.41-7.72.66.06,1.28.1,1.86.1,4.12,0,6.24-1.65,8.11-4.23l-1.75-1.27c-1.87,2.59-3.86,3.86-8.91,3.14t0,0c-2.98-1.29-5.71-5.38-6.81-10.24-1.19-5.26-.27-10.29,2.49-13.59h4.77c.52,1.94,1.49,3.38,2.87,4.2.85.5,1.77.78,2.72.86v5.99c0,2.15.9,4.13,2.48,5.43,1.13.93,2.44,1.42,3.78,1.42.37,0,.75-.04,1.12-.12.15-.03.31-.07.46-.12v3.24c0,4.85,3.95,8.79,8.79,8.79h4.25v8.83ZM473.88,464.77h-4.25c-3.66,0-6.64-2.97-6.64-6.63v-4.4c.82-.67,1.52-1.56,2.08-2.64l-1.91-.99c-.8,1.54-1.94,2.53-3.22,2.79-1.06.22-2.16-.09-3.1-.86-1.08-.88-1.69-2.25-1.69-3.76v-6.17c.97-.24,1.92-.71,2.77-1.38,1.02-.81,2.33-1.44,3.91-1.88l-.58-2.08c-1.86.52-3.43,1.28-4.67,2.27-1.59,1.26-3.63,1.47-5.2.54-1.42-.85-2.24-3-2.24-5.92h-2.16c0,.49.02.96.06,1.41h-4.12c-1.29-4.64,1.34-10.89,3.9-12.41h5.69c.13,2.22.78,4.26,1.94,5.96,1.42,2.11,3.52,3.53,5.76,3.88l.34-2.13c-1.65-.26-3.22-1.34-4.31-2.95-1.55-2.31-1.99-5.4-1.23-8.72l-2.1-.48c-.18.77-.3,1.53-.36,2.28h-4.94c.11-5.51,3.74-10,9.12-11.17,2.87.58,5.6,3.39,6.32,5.2l2.01-.8c-.94-2.34-3.72-5.11-6.75-6.2,1.48-2.26,4.23-3.96,7.23-4.38,3.22-.45,6.17.67,8.34,3.14v14.9c-4.81.54-8.55,4.62-8.55,9.56,0,4.45,3.04,8.21,7.15,9.31l-3.47,13.97h4.87v10.72ZM474.96,426.86c-.37,0-.74.05-1.08.15-1.64.47-2.83,1.97-2.83,3.76s1.19,3.28,2.82,3.76v-.06s.01.07.01.07c0,0-.01,0-.01,0l-.86,3.45c-3.18-.86-5.52-3.77-5.52-7.21,0-3.75,2.78-6.87,6.39-7.39.35-.05.71-.08,1.08-.08s.73.03,1.08.08c3.61.52,6.39,3.64,6.39,7.39,0,3.44-2.34,6.35-5.51,7.21l-.86-3.45s-.01,0-.01,0v-.06.06c1.64-.47,2.83-1.98,2.83-3.76s-1.2-3.29-2.83-3.76c-.34-.1-.7-.15-1.08-.15ZM509.76,450.82c-1.1,4.86-3.83,8.95-6.81,10.24t0,0c-5.05.73-7.04-.55-8.91-3.14l-1.75,1.27c1.87,2.58,3.99,4.23,8.11,4.23.58,0,1.19-.03,1.86-.1.13,3.18-.7,5.83-2.42,7.72-1.63,1.79-3.97,2.81-6.81,2.95-1.1-3.06-4.11-4.69-6.62-4.69v2.16c1.83,0,4.05,1.27,4.7,3.61-1.06,3.43-4.35,4.78-7.13,4.9-2.99.13-6.72-1.14-7.94-4.22v-8.83h4.25c4.85,0,8.79-3.94,8.79-8.79v-3.24c.15.05.3.08.46.12.37.08.75.12,1.12.12,1.33,0,2.65-.49,3.78-1.42,1.58-1.29,2.48-3.27,2.48-5.43v-5.99c.95-.07,1.88-.36,2.72-.86,1.38-.82,2.35-2.27,2.87-4.2h4.77c2.75,3.3,3.68,8.33,2.49,13.59Z"/>
      <path class="cls-3" d="M482.43,430.77c0,3.44-2.34,6.35-5.51,7.21l-.86-3.45c1.63-.47,2.82-1.98,2.82-3.76s-1.2-3.29-2.83-3.76c-.34-.1-.7-.15-1.08-.15s-.74.05-1.08.15c-1.64.47-2.83,1.97-2.83,3.76s1.19,3.28,2.82,3.76l-.86,3.45c-3.18-.86-5.52-3.77-5.52-7.21,0-3.75,2.78-6.87,6.39-7.39.35-.05.71-.08,1.08-.08s.73.03,1.08.08c3.61.52,6.39,3.64,6.39,7.39Z"/>
      <path class="cls-1" d="M473.88,421.21v-14.9c-2.17-2.47-5.12-3.59-8.34-3.14-2.99.42-5.75,2.12-7.23,4.38,3.04,1.09,5.82,3.86,6.75,6.2l-2.01.8c-.72-1.82-3.46-4.63-6.32-5.2-5.38,1.16-9.01,5.65-9.12,11.17h4.94c.06-.75.18-1.51.36-2.28l2.1.48c-.76,3.32-.32,6.41,1.23,8.72,1.09,1.62,2.66,2.69,4.31,2.95l-.34,2.13c-2.24-.36-4.33-1.77-5.76-3.88-1.15-1.7-1.81-3.74-1.94-5.96h-5.69c-2.56,1.52-5.19,7.77-3.9,12.41h4.12c-.04-.45-.06-.92-.06-1.41h2.16c0,2.91.82,5.07,2.24,5.92,1.57.93,3.61.72,5.2-.54,1.24-.99,2.81-1.75,4.67-2.27l.58,2.08c-1.58.44-2.9,1.08-3.91,1.88-.85.67-1.79,1.13-2.77,1.38v6.17c0,1.51.62,2.88,1.69,3.76.94.77,2.03,1.08,3.1.86,1.27-.26,2.42-1.25,3.22-2.79l1.91.99c-.56,1.08-1.27,1.97-2.08,2.64v4.4c0,3.66,2.98,6.63,6.64,6.63h4.25v-10.72h-4.87l3.47-13.97c-4.11-1.09-7.15-4.85-7.15-9.31,0-4.94,3.74-9.02,8.55-9.56ZM469.63,466.92c-4.85,0-8.79-3.94-8.79-8.79v-3.24c-.15.05-.3.08-.46.12-.37.08-.75.12-1.12.12-1.33,0-2.64-.49-3.78-1.42-1.58-1.29-2.48-3.27-2.48-5.43v-5.99c-.95-.08-1.88-.36-2.72-.86-1.38-.82-2.35-2.27-2.87-4.2h-4.77c-2.75,3.3-3.68,8.33-2.49,13.59,1.1,4.86,3.83,8.95,6.81,10.24t0,0c5.06.73,7.04-.55,8.91-3.14l1.75,1.27c-1.86,2.58-3.99,4.23-8.11,4.23-.58,0-1.19-.03-1.86-.1-.13,3.18.7,5.83,2.41,7.72,1.63,1.79,3.98,2.81,6.81,2.95,1.09-3.06,4.11-4.7,6.62-4.7v2.16c-1.83,0-4.06,1.27-4.7,3.62h0c1.07,3.43,4.35,4.78,7.13,4.9,2.99.13,6.72-1.14,7.95-4.22v-8.83h-4.25ZM507.28,437.23h-4.77c-.52,1.94-1.49,3.38-2.87,4.2-.84.5-1.77.78-2.72.86v5.99c0,2.15-.9,4.13-2.48,5.43-1.13.93-2.45,1.42-3.78,1.42-.37,0-.75-.04-1.12-.12-.15-.03-.31-.07-.46-.12v3.24c0,4.85-3.94,8.79-8.79,8.79h-4.25v8.83c1.23,3.08,4.95,4.35,7.94,4.22,2.78-.12,6.06-1.47,7.13-4.9-.65-2.35-2.87-3.61-4.7-3.61v-2.16c2.51,0,5.52,1.64,6.62,4.69,2.83-.14,5.18-1.16,6.81-2.95,1.72-1.89,2.54-4.54,2.42-7.72-.66.07-1.28.1-1.86.1-4.13,0-6.24-1.65-8.11-4.23l1.75-1.27c1.87,2.59,3.86,3.86,8.91,3.14t0,0c2.98-1.29,5.71-5.38,6.81-10.24,1.19-5.26.26-10.29-2.49-13.59ZM503.09,422.66h-5.69c-.13,2.22-.79,4.26-1.94,5.96-1.42,2.11-3.52,3.53-5.76,3.88l-.34-2.13c1.65-.26,3.22-1.34,4.31-2.95,1.56-2.31,2-5.4,1.24-8.72l2.1-.48c.18.77.3,1.54.36,2.28h4.93c-.11-5.51-3.74-10-9.12-11.17-2.86.58-5.6,3.39-6.32,5.2l-2-.8c.94-2.34,3.72-5.11,6.75-6.2-1.48-2.26-4.24-3.96-7.23-4.38-3.22-.45-6.17.67-8.34,3.14v14.9c4.8.54,8.55,4.62,8.55,9.56,0,4.45-3.04,8.21-7.15,9.31l3.47,13.97h-4.86v10.72h4.25c3.66,0,6.63-2.97,6.63-6.63v-4.4c-.81-.67-1.52-1.56-2.08-2.64l1.92-.99c.8,1.54,1.94,2.53,3.22,2.79,1.06.22,2.16-.09,3.1-.86,1.08-.88,1.69-2.25,1.69-3.76v-6.17c-.97-.24-1.92-.71-2.77-1.38-1.02-.81-2.33-1.44-3.91-1.88l.59-2.08c1.85.52,3.42,1.28,4.67,2.27,1.59,1.26,3.63,1.47,5.2.54,1.42-.85,2.24-3,2.24-5.92h2.16c0,.49-.02.96-.06,1.41h4.12c1.29-4.64-1.35-10.89-3.91-12.41Z"/>
      <path class="cls-5" d="M459.73,471.82c-1.16-1.6-1.74-3.25-1.71-4.89l2.16.04c-.02,1.17.41,2.37,1.29,3.58l-1.75,1.27Z"/>
      <path class="cls-5" d="M490.19,471.82l-1.75-1.27c.88-1.21,1.32-2.42,1.29-3.58l2.16-.04c.03,1.65-.54,3.29-1.71,4.89Z"/>
      <ellipse class="cls-2" cx="474.96" cy="496.8" rx="25.99" ry="2.3"/>
    </g>
    <g>
      <path class="cls-2" d="M535.38,426.79h22.09c7.08,0,12.53,5.17,12.53,12.25,0,4.81-2.69,8.92-6.23,10.62,5.45,1.42,9.2,6.58,9.2,12.81,0,7.57-5.73,13.17-13.45,13.17h-24.14v-48.84ZM541.68,432.67v14.86h14.3c3.96,0,7.36-3.18,7.36-7.43s-3.19-7.43-7.36-7.43h-14.3ZM541.68,453.13v16.63h16.35c4.74,0,8.28-3.61,8.28-8.35s-3.54-8.28-8.28-8.28h-16.35Z"/>
      <path class="cls-2" d="M578.77,439.53h6.09v6.87c2.76-4.67,7.29-7.43,12.95-7.43h1.13v6.3h-1.13c-8.07,0-12.95,4.81-12.95,12.25v18.12h-6.09v-36.1Z"/>
      <path class="cls-2" d="M601.85,457.58c0-10.76,7.71-18.9,18.05-18.9,6.02,0,10.97,2.83,14.02,7.36v-6.51h6.09v36.1h-6.09v-6.51c-3.04,4.53-8,7.36-14.02,7.36-10.34,0-18.05-8.14-18.05-18.9ZM633.92,457.58c0-7.43-5.52-13.02-12.88-13.02s-12.95,5.59-12.95,13.02,5.52,13.02,12.95,13.02,12.88-5.59,12.88-13.02Z"/>
      <path class="cls-2" d="M645.71,428.63c0-2.26,1.77-4.03,4.11-4.03s4.04,1.77,4.04,4.03-1.77,4.04-4.04,4.04-4.11-1.7-4.11-4.04ZM646.77,439.53h6.09v36.1h-6.09v-36.1Z"/>
      <path class="cls-2" d="M659.87,439.53h6.09v5.45c2.83-4.04,7.36-6.3,13.03-6.3,8.78,0,14.65,5.8,14.65,14.65v22.3h-6.09v-20.39c0-6.44-4.11-10.69-10.55-10.69s-11.04,4.32-11.04,10.83v20.25h-6.09v-36.1Z"/>
      <path class="cls-2" d="M700.5,426.79h18.83c14.16,0,24.77,10.48,24.77,24.42s-10.62,24.42-24.77,24.42h-18.83v-48.84ZM707.01,432.88v36.67h12.25c10.34,0,18.19-7.86,18.19-18.33s-7.86-18.33-18.19-18.33h-12.25Z"/>
      <path class="cls-2" d="M749.7,439.53h6.09v6.87c2.76-4.67,7.29-7.43,12.95-7.43h1.13v6.3h-1.13c-8.07,0-12.95,4.81-12.95,12.25v18.12h-6.09v-36.1Z"/>
      <path class="cls-2" d="M774.05,428.63c0-2.26,1.77-4.03,4.11-4.03s4.04,1.77,4.04,4.03-1.77,4.04-4.04,4.04-4.11-1.7-4.11-4.04ZM775.11,439.53h6.09v36.1h-6.09v-36.1Z"/>
      <path class="cls-2" d="M786.08,439.53h6.94l12.17,28.81,12.18-28.81h6.79l-15.86,36.1h-6.37l-15.86-36.1Z"/>
      <path class="cls-2" d="M824.16,457.58c0-10.76,8.28-18.9,19.18-18.9s19.18,8.14,19.18,18.9c0,.85-.07,1.77-.14,2.55h-31.71c1.06,6.37,6.16,10.76,12.95,10.76,5.03,0,9.42-2.41,11.47-6.02h6.79c-2.83,6.94-9.84,11.61-18.33,11.61-11.11,0-19.39-8.14-19.39-18.9ZM830.75,454.68h25.34c-1.06-6.02-6.16-10.41-12.74-10.41s-11.4,4.25-12.6,10.41Z"/>
    </g>
  </g>
</svg>